<?xml version="1.0" encoding="UTF-8"?>
<svg id="a" data-name="Layer 1" xmlns="http://www.w3.org/2000/svg" viewBox="0 0 46.73 47.59">
  <defs>
    <style>
      .b {
        fill: #231f20;
        stroke-width: 0px;
      }
    </style>
  </defs>
  <path class="b" d="m23.32,30.51v-4.06c2.41-7.83,9.03-12.52,15.03-11.77,4.62.58,7.53,4.21,8.36,5.34-.05-.78-.56-7.11-5.19-9.84-5.1-3.01-13.6-.71-18.2,6.92V0l-4.7.64v29.87c-.1.36-1.35,4.55-4.9,5.49-3.03.8-5.67-1.33-7.02-2.42C.46,28.52.94,19.07,1.07,17.16c-.64,2.02-1.37,5.28-.94,9.2.19,1.77,1.29,11.72,8.56,14.49.58.22,4.95,1.81,9.2-.64,5.21-3,5.43-9.32,5.44-9.69Z"/>
  <path class="b" d="m15.56,1.58v4.99c-1,.59-8.56,5.23-9.21,13.55-.22,2.74.38,5.05,1,6.68-3.58-4.63-4.46-10.76-2.27-16.02C7.94,3.87,14.69,1.83,15.56,1.58Z"/>
  <path class="b" d="m26.74,24.97c.31.08,6.73,1.77,7.84,6.58,1.17,5.08-4.57,9.37-6.46,10.78-5.3,3.96-11.28,3.91-13.65,3.76.87.31,13.12,4.48,21.29-2.65,1.14-1,5.31-4.64,5.22-10.06-.09-5.42-4.4-10.61-10.93-12.81-.52.29-1.37.87-2.13,1.88-.74.99-1.05,1.95-1.19,2.52Z"/>
  <path class="b" d="m40.19,17.9c1.1.33,3.52,1.25,5.09,3.61,2.27,3.4,1.86,8.38-1.14,12.36.42-1.4,1.14-4.47.3-8.21-.93-4.11-3.23-6.72-4.25-7.76Z"/>
  <path class="b" d="m26.29,10.73v-5.49c.61-.51,3.03-2.4,6.53-2.27,4.68.17,7.31,3.82,7.62,4.25-1.01-.4-3.99-1.42-7.67-.49-3.64.91-5.77,3.18-6.48,4.01Z"/>
</svg>