<?xml version="1.0" encoding="UTF-8"?>
<svg id="Layer_1" data-name="Layer 1" xmlns="http://www.w3.org/2000/svg" viewBox="0 0 947.13 722.59">
  <defs>
    <style>
      .cls-1 {
        fill: #fff;
        stroke-width: 0px;
      }
    </style>
  </defs>
  <path class="cls-1" d="M310.81,2.36h-140.72c-54.34,0-98.38,44.05-98.38,98.38h0v51.58c0,28.49,23.09,51.58,51.58,51.58h0c28.49,0,51.58-23.09,51.58-51.58v-51.58h134.61v426.19c0,57.79-46.85,104.65-104.65,104.65h0c-57.79,0-104.65-46.85-104.65-104.65v-113.14c-4.75-23.63-25.05-40.86-48.3-41.59-25.02-.79-47.59,17.7-51.88,43.38v119.63h0c0,103.49,83.89,187.38,187.38,187.38h32.65c104.47,0,189.17-84.69,189.17-189.17h0V100.75h0c0-54.34-44.05-98.39-98.38-98.39Z"/>
  <path class="cls-1" d="M929.79,13.59h0c-21.57-19.5-54.86-17.81-74.36,3.76l-233.37,258.2V52c0-27.42-22.22-49.64-49.64-49.64h0c-27.42,0-49.64,22.22-49.64,49.64v620.94c0,27.42,22.22,49.64,49.64,49.64h0c27.42,0,49.64-22.22,49.64-49.64v-96.45h.64c-.42-3.79-.64-7.65-.64-11.55v-24.15c0-57.79,46.85-104.65,104.65-104.65h0c57.79,0,104.65,46.85,104.65,104.65v24.15c0,3.91-.22,7.76-.64,11.55h.64v96.3c0,27.5,22.29,49.79,49.79,49.79h0c27.5,0,49.79-22.29,49.79-49.79v-136.55c0-106.04-85.96-192-192-192h-37.04l231.65-256.3c19.5-21.57,17.81-54.86-3.76-74.36Z"/>
</svg>